<svg viewBox="575 338.0839 380 68.3322" width="5000" height="899.107894736842" xmlns="http://www.w3.org/2000/svg" xmlns:xlink="http://www.w3.org/1999/xlink" preserveAspectRatio="none"><defs></defs><style>.aIptOCySncolors-3 {fill:#58FF75;fill-opacity:1;}.aIptOCySncolors-4 {fill:#3A9AF9;fill-opacity:1;}.aIptOCySncolors-5 {fill:#3288DD;fill-opacity:1;}.aIptOCySncolors-6 {fill:#00B0BE;fill-opacity:1;}.aIptOCySncolors-7 {fill:#89FF9D;fill-opacity:1;}.companyName {fill:#FFFFFF;fill-opacity:1;}.icon1 {fill:#005477;fill-opacity:1;}.icon2 {fill:#FFFFFF;fill-opacity:1;}.icon3 {fill:#007B8B;fill-opacity:1;}.icon3-str {stroke:#007B8B;stroke-opacity:1;}.text {fill:#FFFFFF;fill-opacity:1;}</style><g opacity="1" transform="rotate(0 575 338.0839)">
<svg width="68.2143" height="68.3322" x="575" y="338.0839" version="1.1" preserveAspectRatio="none" viewBox="0 0 99.8272933959961 100">
  <g transform="matrix(1 0 0 1 0 0)" class="icon1"><title>univer</title><desc>Created with Sketch.</desc><g stroke-width="1" fill-rule="evenodd"><g><path d="M14.0393881,64.3761667 C21.793128,64.3761667 28.0787761,58.079644 28.0787761,50.3124898 C28.0787761,42.5453355 21.793128,36.2488129 14.0393881,36.2488129 C6.28564814,36.2488129 0,42.5453355 0,50.3124898 C0,58.079644 6.28564814,64.3761667 14.0393881,64.3761667 L14.0393881,64.3761667 Z M63.6378162,86.2428509 C63.4750358,93.8684628 57.2531783,100 49.6016969,100 C41.847957,100 35.5623088,93.7034774 35.5623088,85.9363231 C35.5623088,78.1691688 41.847957,71.8726462 49.6016969,71.8726462 C49.6206766,71.8726462 49.6401891,71.8721699 49.6602289,71.8712221 C49.7440442,71.8721707 49.8279728,71.8726462 49.9120124,71.8726462 C61.8379609,71.8726462 71.5309458,62.2956523 71.744906,50.4002616 C71.7473077,50.3698059 71.7485178,50.3405426 71.7485178,50.3124898 C71.7485178,50.2937213 71.7480268,50.2744306 71.7470501,50.2546229 C71.7480277,50.1693192 71.7485178,50.0838983 71.7485178,49.9983626 C71.7485178,37.9175293 61.9719813,28.124079 49.9120124,28.124079 C49.7872633,28.124079 49.6627586,28.1251269 49.5385065,28.1272143 C41.8138351,28.0931155 35.5623088,21.8097204 35.5623088,14.0636769 C35.5623088,6.29652262 41.847957,0 49.6016969,0 C57.3343625,0 63.6069058,6.26234175 63.6409457,14.0003772 C63.6388619,14.1248442 63.6378158,14.2495644 63.6378158,14.3745292 C63.6378158,26.4553625 73.4143523,36.2488129 85.4743212,36.2488129 C85.5579657,36.2488129 85.6415004,36.2483418 85.7249228,36.2474021 C85.7464162,36.2483409 85.7674123,36.2488129 85.7879058,36.2488129 C93.5416458,36.2488129 99.8272939,42.5453355 99.8272939,50.3124898 C99.8272939,58.0594025 93.5743645,64.3433386 85.8484957,64.3760385 C85.7240216,64.3739435 85.599294,64.3728918 85.4743212,64.3728918 C73.4157913,64.3728918 63.640149,74.1640051 63.6378162,86.2428509 L63.6378162,86.2428509 L63.6378162,86.2428509 Z"></path></g></g></g>
</svg>
</g><g opacity="1" transform="rotate(0 658.0048 391.3297)">
<svg width="296.9952" height="15.0864" x="658.0048" y="391.3297" version="1.1" preserveAspectRatio="none" viewBox="1.76 -30.88 766.36 38.92">
  <g transform="matrix(1 0 0 1 0 0)" class="text"><path id="id-6izo4zJp35" d="M16.72 0.40Q12.48 0.40 9.06-1.46Q5.64-3.32 3.70-6.60Q1.76-9.88 1.76-14L1.76-14Q1.76-18.12 3.72-21.40Q5.68-24.68 9.10-26.54Q12.52-28.40 16.76-28.40L16.76-28.40Q20.20-28.40 23.04-27.20Q25.88-26 27.84-23.72L27.84-23.72L24.48-20.56Q21.44-23.84 17-23.84L17-23.84Q14.12-23.84 11.84-22.58Q9.56-21.32 8.28-19.08Q7-16.84 7-14L7-14Q7-11.16 8.28-8.92Q9.56-6.68 11.84-5.42Q14.12-4.16 17-4.16L17-4.16Q21.44-4.16 24.48-7.48L24.48-7.48L27.84-4.28Q25.88-2 23.02-0.80Q20.16 0.40 16.72 0.40L16.72 0.40Z M42.36 0.28Q39.12 0.28 36.52-1.12Q33.92-2.52 32.46-5.02Q31-7.52 31-10.68L31-10.68Q31-13.84 32.46-16.32Q33.92-18.80 36.52-20.20Q39.12-21.60 42.36-21.60L42.36-21.60Q45.64-21.60 48.24-20.20Q50.84-18.80 52.30-16.32Q53.76-13.84 53.76-10.68L53.76-10.68Q53.76-7.52 52.30-5.02Q50.84-2.52 48.24-1.12Q45.64 0.28 42.36 0.28L42.36 0.28ZM42.36-4Q45.12-4 46.92-5.84Q48.72-7.68 48.72-10.68L48.72-10.68Q48.72-13.68 46.92-15.52Q45.12-17.36 42.36-17.36L42.36-17.36Q39.60-17.36 37.82-15.52Q36.04-13.68 36.04-10.68L36.04-10.68Q36.04-7.68 37.82-5.84Q39.60-4 42.36-4L42.36-4Z M71.88-21.60Q75.92-21.60 78.36-19.24Q80.80-16.88 80.80-12.24L80.80-12.24L80.80 0L75.80 0L75.80-11.60Q75.80-14.40 74.48-15.82Q73.16-17.24 70.72-17.24L70.72-17.24Q67.96-17.24 66.36-15.58Q64.76-13.92 64.76-10.80L64.76-10.80L64.76 0L59.76 0L59.76-21.36L64.52-21.36L64.52-18.60Q65.76-20.08 67.64-20.84Q69.52-21.60 71.88-21.60L71.88-21.60Z M100.48-21.60Q104.52-21.60 106.96-19.24Q109.40-16.88 109.40-12.24L109.40-12.24L109.40 0L104.40 0L104.40-11.60Q104.40-14.40 103.08-15.82Q101.76-17.24 99.32-17.24L99.32-17.24Q96.56-17.24 94.96-15.58Q93.36-13.92 93.36-10.80L93.36-10.80L93.36 0L88.36 0L88.36-21.36L93.12-21.36L93.12-18.60Q94.36-20.08 96.24-20.84Q98.12-21.60 100.48-21.60L100.48-21.60Z M137.24-10.56Q137.24-10.04 137.16-9.08L137.16-9.08L120.40-9.08Q120.84-6.72 122.70-5.34Q124.56-3.96 127.32-3.96L127.32-3.96Q130.84-3.96 133.12-6.28L133.12-6.28L135.80-3.20Q134.36-1.48 132.16-0.60Q129.96 0.28 127.20 0.28L127.20 0.28Q123.68 0.28 121.00-1.12Q118.32-2.52 116.86-5.02Q115.40-7.52 115.40-10.68L115.40-10.68Q115.40-13.80 116.82-16.30Q118.24-18.80 120.76-20.20Q123.28-21.60 126.44-21.60L126.44-21.60Q129.56-21.60 132.02-20.22Q134.48-18.84 135.86-16.34Q137.24-13.84 137.24-10.56L137.24-10.56ZM126.44-17.60Q124.04-17.60 122.38-16.18Q120.72-14.76 120.36-12.40L120.36-12.40L132.48-12.40Q132.16-14.72 130.52-16.16Q128.88-17.60 126.44-17.60L126.44-17.60Z M153.04 0.28Q149.72 0.28 147.08-1.12Q144.44-2.52 142.96-5.02Q141.48-7.52 141.48-10.68L141.48-10.68Q141.48-13.84 142.96-16.32Q144.44-18.80 147.06-20.20Q149.68-21.60 153.04-21.60L153.04-21.60Q156.20-21.60 158.58-20.32Q160.96-19.04 162.16-16.64L162.16-16.64L158.32-14.40Q157.40-15.88 156.02-16.62Q154.64-17.36 153-17.36L153-17.36Q150.20-17.36 148.36-15.54Q146.52-13.72 146.52-10.68L146.52-10.68Q146.52-7.64 148.34-5.82Q150.16-4 153-4L153-4Q154.64-4 156.02-4.74Q157.40-5.48 158.32-6.96L158.32-6.96L162.16-4.72Q160.92-2.32 158.54-1.02Q156.16 0.28 153.04 0.28L153.04 0.28Z M179.40-4.72L180.80-1.16Q179.92-0.44 178.66-0.08Q177.40 0.28 176 0.28L176 0.28Q172.48 0.28 170.56-1.56Q168.64-3.40 168.64-6.92L168.64-6.92L168.64-17.20L165.12-17.20L165.12-21.20L168.64-21.20L168.64-26.08L173.64-26.08L173.64-21.20L179.36-21.20L179.36-17.20L173.64-17.20L173.64-7.04Q173.64-5.48 174.40-4.66Q175.16-3.84 176.60-3.84L176.60-3.84Q178.28-3.84 179.40-4.72L179.40-4.72Z M186.12 0L186.12-21.36L191.12-21.36L191.12 0L186.12 0ZM188.64-24.88Q187.28-24.88 186.36-25.74Q185.44-26.60 185.44-27.88L185.44-27.88Q185.44-29.16 186.36-30.02Q187.28-30.88 188.64-30.88L188.64-30.88Q190-30.88 190.92-30.06Q191.84-29.24 191.84-28L191.84-28Q191.84-26.68 190.94-25.78Q190.04-24.88 188.64-24.88L188.64-24.88Z M211-21.60Q215.04-21.60 217.48-19.24Q219.92-16.88 219.92-12.24L219.92-12.24L219.92 0L214.92 0L214.92-11.60Q214.92-14.40 213.60-15.82Q212.28-17.24 209.84-17.24L209.84-17.24Q207.08-17.24 205.48-15.58Q203.88-13.92 203.88-10.80L203.88-10.80L203.88 0L198.88 0L198.88-21.36L203.64-21.36L203.64-18.60Q204.88-20.08 206.76-20.84Q208.64-21.60 211-21.60L211-21.60Z M244.12-21.36L248.88-21.36L248.88-3.24Q248.88 8.04 237.36 8.04L237.36 8.04Q234.28 8.04 231.52 7.26Q228.76 6.48 226.96 5L226.96 5L229.20 1.24Q230.60 2.40 232.74 3.10Q234.88 3.80 237.08 3.80L237.08 3.80Q240.60 3.80 242.24 2.20Q243.88 0.60 243.88-2.68L243.88-2.68L243.88-3.80Q242.60-2.40 240.76-1.68Q238.92-0.96 236.72-0.96L236.72-0.96Q233.68-0.96 231.22-2.26Q228.76-3.56 227.34-5.92Q225.92-8.28 225.92-11.32L225.92-11.32Q225.92-14.36 227.34-16.70Q228.76-19.04 231.22-20.32Q233.68-21.60 236.72-21.60L236.72-21.60Q239.04-21.60 240.94-20.84Q242.84-20.08 244.12-18.52L244.12-18.52L244.12-21.36ZM237.48-5.20Q240.32-5.20 242.14-6.90Q243.96-8.60 243.96-11.32L243.96-11.32Q243.96-14 242.14-15.68Q240.32-17.36 237.48-17.36L237.48-17.36Q234.60-17.36 232.78-15.68Q230.96-14 230.96-11.32L230.96-11.32Q230.96-8.60 232.78-6.90Q234.60-5.20 237.48-5.20L237.48-5.20Z M292.40-28L281.44-9.88L281.44 0L276.24 0L276.24-9.80L265.24-28L270.80-28L279.00-14.36L287.28-28L292.40-28Z M303.72 0.28Q300.48 0.28 297.88-1.12Q295.28-2.52 293.82-5.02Q292.36-7.52 292.36-10.68L292.36-10.68Q292.36-13.84 293.82-16.32Q295.28-18.80 297.88-20.20Q300.48-21.60 303.72-21.60L303.72-21.60Q307-21.60 309.60-20.20Q312.20-18.80 313.66-16.32Q315.12-13.84 315.12-10.68L315.12-10.68Q315.12-7.52 313.66-5.02Q312.20-2.52 309.60-1.12Q307 0.28 303.72 0.28L303.72 0.28ZM303.72-4Q306.48-4 308.28-5.84Q310.08-7.68 310.08-10.68L310.08-10.68Q310.08-13.68 308.28-15.52Q306.48-17.36 303.72-17.36L303.72-17.36Q300.96-17.36 299.18-15.52Q297.40-13.68 297.40-10.68L297.40-10.68Q297.40-7.68 299.18-5.84Q300.96-4 303.72-4L303.72-4Z M336.80-21.36L341.80-21.36L341.80 0L337.04 0L337.04-2.72Q335.84-1.28 334.04-0.50Q332.24 0.28 330.16 0.28L330.16 0.28Q325.88 0.28 323.42-2.10Q320.96-4.48 320.96-9.16L320.96-9.16L320.96-21.36L325.96-21.36L325.96-9.84Q325.96-6.96 327.26-5.54Q328.56-4.12 330.96-4.12L330.96-4.12Q333.64-4.12 335.22-5.78Q336.80-7.44 336.80-10.56L336.80-10.56L336.80-21.36Z M373.24-4.72L374.64-1.16Q373.76-0.44 372.50-0.08Q371.24 0.28 369.84 0.28L369.84 0.28Q366.32 0.28 364.40-1.56Q362.48-3.40 362.48-6.92L362.48-6.92L362.48-17.20L358.96-17.20L358.96-21.20L362.48-21.20L362.48-26.08L367.48-26.08L367.48-21.20L373.20-21.20L373.20-17.20L367.48-17.20L367.48-7.04Q367.48-5.48 368.24-4.66Q369-3.84 370.44-3.84L370.44-3.84Q372.12-3.84 373.24-4.72L373.24-4.72Z M388.84 0.28Q385.60 0.28 383.00-1.12Q380.40-2.52 378.94-5.02Q377.48-7.52 377.48-10.68L377.48-10.68Q377.48-13.84 378.94-16.32Q380.40-18.80 383.00-20.20Q385.60-21.60 388.84-21.60L388.84-21.60Q392.12-21.60 394.72-20.20Q397.32-18.80 398.78-16.32Q400.24-13.84 400.24-10.68L400.24-10.68Q400.24-7.52 398.78-5.02Q397.32-2.52 394.72-1.12Q392.12 0.28 388.84 0.28L388.84 0.28ZM388.84-4Q391.60-4 393.40-5.84Q395.20-7.68 395.20-10.68L395.20-10.68Q395.20-13.68 393.40-15.52Q391.60-17.36 388.84-17.36L388.84-17.36Q386.08-17.36 384.30-15.52Q382.52-13.68 382.52-10.68L382.52-10.68Q382.52-7.68 384.30-5.84Q386.08-4 388.84-4L388.84-4Z M438.08-5.60L438.08-14.32L443.00-14.32L443.00-3.16Q440.84-1.44 437.96-0.52Q435.08 0.40 432.04 0.40L432.04 0.40Q427.76 0.40 424.32-1.46Q420.88-3.32 418.92-6.60Q416.96-9.88 416.96-14L416.96-14Q416.96-18.12 418.92-21.40Q420.88-24.68 424.34-26.54Q427.80-28.40 432.12-28.40L432.12-28.40Q435.64-28.40 438.52-27.24Q441.40-26.08 443.36-23.84L443.36-23.84L440.08-20.64Q436.88-23.84 432.36-23.84L432.36-23.84Q429.40-23.84 427.10-22.60Q424.80-21.36 423.50-19.12Q422.20-16.88 422.20-14L422.20-14Q422.20-11.20 423.50-8.96Q424.80-6.72 427.10-5.44Q429.40-4.16 432.32-4.16L432.32-4.16Q435.60-4.16 438.08-5.60L438.08-5.60Z M450.56 0L450.56-29.68L455.56-29.68L455.56 0L450.56 0Z M472.92 0.28Q469.68 0.28 467.08-1.12Q464.48-2.52 463.02-5.02Q461.56-7.52 461.56-10.68L461.56-10.68Q461.56-13.84 463.02-16.32Q464.48-18.80 467.08-20.20Q469.68-21.60 472.92-21.60L472.92-21.60Q476.20-21.60 478.80-20.20Q481.40-18.80 482.86-16.32Q484.32-13.84 484.32-10.68L484.32-10.68Q484.32-7.52 482.86-5.02Q481.40-2.52 478.80-1.12Q476.20 0.28 472.92 0.28L472.92 0.28ZM472.92-4Q475.68-4 477.48-5.84Q479.28-7.68 479.28-10.68L479.28-10.68Q479.28-13.68 477.48-15.52Q475.68-17.36 472.92-17.36L472.92-17.36Q470.16-17.36 468.38-15.52Q466.60-13.68 466.60-10.68L466.60-10.68Q466.60-7.68 468.38-5.84Q470.16-4 472.92-4L472.92-4Z M502.16-21.60Q505.28-21.60 507.74-20.24Q510.20-18.88 511.60-16.40Q513.00-13.92 513.00-10.68L513.00-10.68Q513.00-7.44 511.60-4.94Q510.20-2.44 507.74-1.08Q505.28 0.28 502.16 0.28L502.16 0.28Q499.96 0.28 498.14-0.48Q496.32-1.24 495.08-2.76L495.08-2.76L495.08 0L490.32 0L490.32-29.68L495.32-29.68L495.32-18.76Q496.60-20.16 498.34-20.88Q500.08-21.60 502.16-21.60L502.16-21.60ZM501.60-4Q504.36-4 506.14-5.84Q507.92-7.68 507.92-10.68L507.92-10.68Q507.92-13.68 506.14-15.52Q504.36-17.36 501.60-17.36L501.60-17.36Q499.80-17.36 498.36-16.54Q496.92-15.72 496.08-14.20Q495.24-12.68 495.24-10.68L495.24-10.68Q495.24-8.68 496.08-7.16Q496.92-5.64 498.36-4.82Q499.80-4 501.60-4L501.60-4Z M526.84-21.60Q531.56-21.60 534.06-19.34Q536.56-17.08 536.56-12.52L536.56-12.52L536.56 0L531.84 0L531.84-2.60Q530.92-1.20 529.22-0.46Q527.52 0.28 525.12 0.28L525.12 0.28Q522.72 0.28 520.92-0.54Q519.12-1.36 518.14-2.82Q517.16-4.28 517.16-6.12L517.16-6.12Q517.16-9 519.30-10.74Q521.44-12.48 526.04-12.48L526.04-12.48L531.56-12.48L531.56-12.80Q531.56-15.04 530.22-16.24Q528.88-17.44 526.24-17.44L526.24-17.44Q524.44-17.44 522.70-16.88Q520.96-16.32 519.76-15.32L519.76-15.32L517.80-18.96Q519.48-20.24 521.84-20.92Q524.20-21.60 526.84-21.60L526.84-21.60ZM526.16-3.36Q528.04-3.36 529.50-4.22Q530.96-5.08 531.56-6.68L531.56-6.68L531.56-9.16L526.40-9.16Q522.08-9.16 522.08-6.32L522.08-6.32Q522.08-4.96 523.16-4.16Q524.24-3.36 526.16-3.36L526.16-3.36Z M544.16 0L544.16-29.68L549.16-29.68L549.16 0L544.16 0Z M589.48-14.56Q591.80-13.80 593.16-12.02Q594.52-10.24 594.52-7.60L594.52-7.60Q594.52-3.96 591.72-1.98Q588.92 0 583.56 0L583.56 0L569.64 0L569.64-28L582.76-28Q587.72-28 590.40-26.06Q593.08-24.12 593.08-20.72L593.08-20.72Q593.08-18.64 592.12-17.04Q591.16-15.44 589.48-14.56L589.48-14.56ZM582.20-23.92L574.84-23.92L574.84-16.20L582.20-16.20Q584.92-16.20 586.38-17.18Q587.84-18.16 587.84-20.04L587.84-20.04Q587.84-21.96 586.38-22.94Q584.92-23.92 582.20-23.92L582.20-23.92ZM583.24-4.08Q589.28-4.08 589.28-8.12L589.28-8.12Q589.28-12.16 583.24-12.16L583.24-12.16L574.84-12.16L574.84-4.08L583.24-4.08Z M605.56-18.24Q607.72-21.60 613.16-21.60L613.16-21.60L613.16-16.84Q612.52-16.96 612.00-16.96L612.00-16.96Q609.08-16.96 607.44-15.26Q605.80-13.56 605.80-10.36L605.80-10.36L605.80 0L600.80 0L600.80-21.36L605.56-21.36L605.56-18.24Z M618.60 0L618.60-21.36L623.60-21.36L623.60 0L618.60 0ZM621.12-24.88Q619.76-24.88 618.84-25.74Q617.92-26.60 617.92-27.88L617.92-27.88Q617.92-29.16 618.84-30.02Q619.76-30.88 621.12-30.88L621.12-30.88Q622.48-30.88 623.40-30.06Q624.32-29.24 624.32-28L624.32-28Q624.32-26.68 623.42-25.78Q622.52-24.88 621.12-24.88L621.12-24.88Z M631.36 0L631.36-29.68L636.36-29.68L636.36 0L631.36 0Z M644.12 0L644.12-29.68L649.12-29.68L649.12 0L644.12 0Z M656.88 0L656.88-21.36L661.88-21.36L661.88 0L656.88 0ZM659.40-24.88Q658.04-24.88 657.12-25.74Q656.20-26.60 656.20-27.88L656.20-27.88Q656.20-29.16 657.12-30.02Q658.04-30.88 659.40-30.88L659.40-30.88Q660.76-30.88 661.68-30.06Q662.60-29.24 662.60-28L662.60-28Q662.60-26.68 661.70-25.78Q660.80-24.88 659.40-24.88L659.40-24.88Z M677.80-21.60Q682.52-21.60 685.02-19.34Q687.52-17.08 687.52-12.52L687.52-12.52L687.52 0L682.80 0L682.80-2.60Q681.88-1.20 680.18-0.46Q678.48 0.28 676.08 0.28L676.08 0.28Q673.68 0.28 671.88-0.54Q670.08-1.36 669.10-2.82Q668.12-4.28 668.12-6.12L668.12-6.12Q668.12-9 670.26-10.74Q672.40-12.48 677-12.48L677-12.48L682.52-12.48L682.52-12.80Q682.52-15.04 681.18-16.24Q679.84-17.44 677.20-17.44L677.20-17.44Q675.40-17.44 673.66-16.88Q671.92-16.32 670.72-15.32L670.72-15.32L668.76-18.96Q670.44-20.24 672.80-20.92Q675.16-21.60 677.80-21.60L677.80-21.60ZM677.12-3.36Q679-3.36 680.46-4.22Q681.92-5.08 682.52-6.68L682.52-6.68L682.52-9.16L677.36-9.16Q673.04-9.16 673.04-6.32L673.04-6.32Q673.04-4.96 674.12-4.16Q675.20-3.36 677.12-3.36L677.12-3.36Z M707.24-21.60Q711.28-21.60 713.72-19.24Q716.16-16.88 716.16-12.24L716.16-12.24L716.16 0L711.16 0L711.16-11.60Q711.16-14.40 709.84-15.82Q708.52-17.24 706.08-17.24L706.08-17.24Q703.32-17.24 701.72-15.58Q700.12-13.92 700.12-10.80L700.12-10.80L700.12 0L695.12 0L695.12-21.36L699.88-21.36L699.88-18.60Q701.12-20.08 703-20.84Q704.88-21.60 707.24-21.60L707.24-21.60Z M733.72 0.28Q730.40 0.28 727.76-1.12Q725.12-2.52 723.64-5.02Q722.16-7.52 722.16-10.68L722.16-10.68Q722.16-13.84 723.64-16.32Q725.12-18.80 727.74-20.20Q730.36-21.60 733.72-21.60L733.72-21.60Q736.88-21.60 739.26-20.32Q741.64-19.04 742.84-16.64L742.84-16.64L739.00-14.40Q738.08-15.88 736.70-16.62Q735.32-17.36 733.68-17.36L733.68-17.36Q730.88-17.36 729.04-15.54Q727.20-13.72 727.20-10.68L727.20-10.68Q727.20-7.64 729.02-5.82Q730.84-4 733.68-4L733.68-4Q735.32-4 736.70-4.74Q738.08-5.48 739.00-6.96L739.00-6.96L742.84-4.72Q741.60-2.32 739.22-1.02Q736.84 0.28 733.72 0.28L733.72 0.28Z M768.12-10.56Q768.12-10.04 768.04-9.08L768.04-9.08L751.28-9.08Q751.72-6.72 753.58-5.34Q755.44-3.96 758.20-3.96L758.20-3.96Q761.72-3.96 764.00-6.28L764.00-6.28L766.68-3.20Q765.24-1.48 763.04-0.60Q760.84 0.28 758.08 0.28L758.08 0.28Q754.56 0.28 751.88-1.12Q749.20-2.52 747.74-5.02Q746.28-7.52 746.28-10.68L746.28-10.68Q746.28-13.80 747.70-16.30Q749.12-18.80 751.64-20.20Q754.16-21.60 757.32-21.60L757.32-21.60Q760.44-21.60 762.90-20.22Q765.36-18.84 766.74-16.34Q768.12-13.84 768.12-10.56L768.12-10.56ZM757.32-17.60Q754.92-17.60 753.26-16.18Q751.60-14.76 751.24-12.40L751.24-12.40L763.36-12.40Q763.04-14.72 761.40-16.16Q759.76-17.60 757.32-17.60L757.32-17.60Z"/></g>
</svg>
</g><g opacity="1" transform="rotate(0 658.0048 352.45)">
<svg width="171.4478" height="31.6" x="658.0048" y="352.45" version="1.1" preserveAspectRatio="none" viewBox="1.28 -26.28 144.32 26.6">
  <g transform="matrix(1 0 0 1 0 0)" class="companyName"><path id="id-D6z1nYkh6" d="M13.12 0.32Q9.72 0.32 7.02-1.10Q4.32-2.52 2.80-5.04Q1.28-7.56 1.28-10.76L1.28-10.76Q1.28-13.96 2.80-16.48Q4.32-19 7.02-20.42Q9.72-21.84 13.12-21.84L13.12-21.84Q16.52-21.84 19.20-20.42Q21.88-19 23.40-16.48Q24.92-13.96 24.92-10.76L24.92-10.76Q24.92-7.56 23.40-5.04Q21.88-2.52 19.20-1.10Q16.52 0.32 13.12 0.32L13.12 0.32ZM13.12-4.80Q15.52-4.80 17.06-6.42Q18.60-8.04 18.60-10.76L18.60-10.76Q18.60-13.48 17.06-15.10Q15.52-16.72 13.12-16.72L13.12-16.72Q10.72-16.72 9.16-15.10Q7.60-13.48 7.60-10.76L7.60-10.76Q7.60-8.04 9.16-6.42Q10.72-4.80 13.12-4.80L13.12-4.80Z M39.48 0.32Q36.04 0.32 33.30-1.10Q30.56-2.52 29.02-5.04Q27.48-7.56 27.48-10.76L27.48-10.76Q27.48-13.96 29.02-16.48Q30.56-19 33.30-20.42Q36.04-21.84 39.48-21.84L39.48-21.84Q42.88-21.84 45.42-20.42Q47.96-19 49.12-16.36L49.12-16.36L44.28-13.76Q42.60-16.72 39.44-16.72L39.44-16.72Q37-16.72 35.40-15.12Q33.80-13.52 33.80-10.76L33.80-10.76Q33.80-8 35.40-6.40Q37-4.80 39.44-4.80L39.44-4.80Q42.64-4.80 44.28-7.76L44.28-7.76L49.12-5.12Q47.96-2.56 45.42-1.12Q42.88 0.32 39.48 0.32L39.48 0.32Z M65.24-5.44L66.92-1.04Q66-0.36 64.66-0.02Q63.32 0.32 61.84 0.32L61.84 0.32Q58 0.32 55.90-1.64Q53.80-3.60 53.80-7.40L53.80-7.40L53.80-16.24L50.48-16.24L50.48-21.04L53.80-21.04L53.80-26.28L60.04-26.28L60.04-21.04L65.40-21.04L65.40-16.24L60.04-16.24L60.04-7.48Q60.04-6.12 60.74-5.38Q61.44-4.64 62.72-4.64L62.72-4.64Q64.20-4.64 65.24-5.44L65.24-5.44Z M80 0.32Q76.60 0.32 73.90-1.10Q71.20-2.52 69.68-5.04Q68.16-7.56 68.16-10.76L68.16-10.76Q68.16-13.96 69.68-16.48Q71.20-19 73.90-20.42Q76.60-21.84 80-21.84L80-21.84Q83.40-21.84 86.08-20.42Q88.76-19 90.28-16.48Q91.80-13.96 91.80-10.76L91.80-10.76Q91.80-7.56 90.28-5.04Q88.76-2.52 86.08-1.10Q83.40 0.32 80 0.32L80 0.32ZM80-4.80Q82.40-4.80 83.94-6.42Q85.48-8.04 85.48-10.76L85.48-10.76Q85.48-13.48 83.94-15.10Q82.40-16.72 80-16.72L80-16.72Q77.60-16.72 76.04-15.10Q74.48-13.48 74.48-10.76L74.48-10.76Q74.48-8.04 76.04-6.42Q77.60-4.80 80-4.80L80-4.80Z M109.04-21.84Q113.04-21.84 115.50-19.44Q117.96-17.04 117.96-12.32L117.96-12.32L117.96 0L111.72 0L111.72-11.36Q111.72-13.92 110.60-15.18Q109.48-16.44 107.36-16.44L107.36-16.44Q105-16.44 103.60-14.98Q102.20-13.52 102.20-10.64L102.20-10.64L102.20 0L95.96 0L95.96-21.52L101.92-21.52L101.92-19Q103.16-20.36 105-21.10Q106.84-21.84 109.04-21.84L109.04-21.84Z M136.68-21.84Q140.68-21.84 143.14-19.44Q145.60-17.04 145.60-12.32L145.60-12.32L145.60 0L139.36 0L139.36-11.36Q139.36-13.92 138.24-15.18Q137.12-16.44 135-16.44L135-16.44Q132.64-16.44 131.24-14.98Q129.84-13.52 129.84-10.64L129.84-10.64L129.84 0L123.60 0L123.60-21.52L129.56-21.52L129.56-19Q130.80-20.36 132.64-21.10Q134.48-21.84 136.68-21.84L136.68-21.84Z"/></g>
</svg>
</g></svg>